<svg version="1.1" id="Layer_1" xmlns="http://www.w3.org/2000/svg" xmlns:xlink="http://www.w3.org/1999/xlink" x="0px" y="0px"
	 width="100%" viewBox="0 0 110 132" enable-background="new 0 0 110 132" xml:space="preserve">
<path fill="#395B1C" opacity="1.000000" stroke="none"
	d="
M89.756775,26.706333
	C89.829124,26.536249 89.901482,26.366167 89.806442,25.990856
	C89.639053,25.785629 89.727074,25.803331 89.727074,25.803331
	C89.978432,25.922514 90.229790,26.041697 91.159363,25.814972
	C93.009026,24.707928 94.180481,23.946795 95.401154,23.153679
	C96.357475,24.166569 97.166199,25.023138 98.247208,26.028528
	C98.959328,26.604900 99.399162,27.032452 99.764969,27.790447
	C100.760254,29.499752 101.829582,30.878613 102.868401,32.218128
	C101.906273,33.514915 101.052460,34.665710 99.895088,35.835686
	C94.437645,39.004295 89.283752,42.153732 84.125145,44.920074
	C85.180084,43.373844 86.022659,41.735085 87.338982,41.134312
	C91.775002,39.109684 89.483948,35.449787 89.805168,32.426769
	C88.017853,32.564823 86.232056,32.746819 84.442108,32.809128
	C84.010712,32.824142 83.565521,32.442741 83.105789,32.120346
	C83.084900,31.997051 82.948196,31.787615 83.255753,31.664133
	C85.627792,29.929213 87.692284,28.317772 89.756775,26.706333
z"/>
<path fill="#280D02" opacity="1.000000" stroke="none"
	d="
M27.869846,35.989777
	C27.930925,35.535736 27.992002,35.081696 28.261692,34.119774
	C28.588116,33.291378 28.511854,33.026638 28.241520,32.817669
	C28.241520,32.817669 28.193789,32.420155 28.668528,32.507156
	C32.812363,34.824814 36.481457,37.055470 40.158062,39.733284
	C40.048229,47.765869 39.930885,55.351307 39.536659,63.069069
	C38.543175,63.566113 37.826580,63.930828 36.766788,64.275627
	C34.163857,66.658897 35.101353,67.761429 38.072865,68.331299
	C38.700901,69.076515 39.233513,69.565788 39.818073,70.275040
	C39.870022,70.495018 40.032879,70.916046 40.006626,71.389984
	C40.022079,74.354927 40.000484,76.848953 40.118916,79.336311
	C40.352020,84.232399 40.662868,89.124771 40.714767,94.280762
	C36.393814,96.035973 32.299652,97.529114 28.138420,98.556503
	C28.004183,77.390434 27.937014,56.690105 27.869846,35.989777
z"/>
<path fill="#431A0A" opacity="1.000000" stroke="none"
	d="
M40.150551,39.286129
	C36.481457,37.055470 32.812363,34.824814 28.799942,32.356144
	C30.142439,29.737518 31.672550,27.218487 33.598797,25.051600
	C34.270187,24.296331 35.919773,24.410625 37.518143,24.240143
	C46.574245,28.919390 55.254097,33.450459 63.877274,38.086937
	C65.390671,38.900650 66.666389,40.156414 67.721375,41.669559
	C65.262146,43.489914 63.133427,44.848736 60.728230,46.272568
	C59.716740,47.201859 58.981731,48.066139 58.084755,48.616096
	C51.998707,45.296555 46.074627,42.291344 40.150551,39.286129
z"/>
<path fill="#431A07" opacity="1.000000" stroke="none"
	d="
M28.136505,32.994888
	C28.511854,33.026638 28.588116,33.291378 28.330658,33.781876
	C28.004036,33.719337 27.950863,33.459419 28.136505,32.994888
z"/>
<path fill="#431A0A" opacity="1.000000" stroke="none"	d="
M68.252495,91.182220
	C67.241440,92.277313 66.428925,93.742584 65.187607,94.408371
	C56.050293,99.309235 46.827312,104.050377 37.305084,108.998268
	C36.211494,109.451363 35.444130,109.748009 34.355301,110.003677
	C32.051727,106.549393 30.069616,103.136093 28.146498,99.372520
	C32.299652,97.529114 36.393814,96.035973 41.009712,94.109360
	C43.053844,92.813927 44.576233,91.951973 46.417496,90.924980
	C49.190907,89.538612 51.645439,88.317276 54.424881,87.050369
	C55.816605,86.297661 56.883423,85.590523 58.261391,85.040703
	C61.691223,87.137802 64.809914,89.077583 67.998367,91.080597
	C68.068146,91.143814 68.252495,91.182220 68.252495,91.182220
z"/>
<path fill="#3F6021" opacity="1.000000" stroke="none"
	d="
M76.001282,80.990005
	C77.394157,81.735527 78.787033,82.481041 80.505478,83.347649
	C87.969681,88.632332 95.108315,93.795921 102.550385,99.123688
	C101.755768,102.128815 100.657707,104.969765 98.958435,107.995491
	C97.797920,108.539215 97.238609,108.898163 96.679298,109.257111
	C96.679298,109.257103 96.342033,109.345627 96.188911,109.429085
	C94.171204,108.646263 92.155373,108.004532 90.471329,106.870224
	C86.010666,103.865669 81.693497,100.648087 77.391586,97.005501
	C82.104408,98.625938 86.314865,99.202560 88.798332,93.260429
	C88.531891,92.939949 88.263779,92.541290 87.923141,92.219345
	C83.955513,88.469543 79.976944,84.731308 76.001282,80.990005
z"/>
<path fill="#3E651A" opacity="1.000000" stroke="none"
	d="
M84.125145,44.920074
	C80.991791,47.803959 77.853714,50.304745 74.369247,52.447655
	C74.888634,51.032452 75.595314,49.769974 76.647987,48.953674
	C80.970123,45.602032 81.397163,41.965111 77.693794,38.191467
	C76.055847,38.751163 74.387993,39.321079 72.720146,39.890999
	C75.948738,37.355801 79.177322,34.820599 82.766289,32.264523
	C83.565521,32.442741 84.010712,32.824142 84.442108,32.809128
	C86.232056,32.746819 88.017853,32.564823 89.805168,32.426769
	C89.483948,35.449787 91.775002,39.109684 87.338982,41.134312
	C86.022659,41.735085 85.180084,43.373844 84.125145,44.920074
z"/>
<path fill="#436C18" opacity="1.000000" stroke="none"
	d="
M72.461548,39.958000
	C74.387993,39.321079 76.055847,38.751163 77.693794,38.191467
	C81.397163,41.965111 80.970123,45.602032 76.647987,48.953674
	C75.595314,49.769974 74.888634,51.032452 74.012772,52.448914
	C73.483543,53.437325 72.964401,54.066601 71.907303,54.513306
	C71.231880,52.549240 71.094429,50.767750 70.848656,48.730064
	C70.490959,47.976707 70.241585,47.479542 70.325851,46.945095
	C74.833237,45.227703 71.424416,43.056377 71.036980,41.080784
	C71.425636,40.728855 71.814293,40.376930 72.461548,39.958000
z"/>
<path fill="#4C731F" opacity="1.000000" stroke="none"
	d="
M70.733627,41.165279
	C71.424416,43.056377 74.833237,45.227703 70.098900,46.716133
	C67.539474,47.086792 65.564438,47.885639 63.529621,48.090389
	C62.758942,48.167942 61.850407,46.875523 61.004707,46.207554
	C63.133427,44.848736 65.262146,43.489914 67.732681,42.030384
	C68.859764,41.703041 69.645012,41.476410 70.733627,41.165279
z"/>
<path fill="#579317" opacity="1.000000" stroke="none"
	d="
M37.109985,64.295547
	C37.826580,63.930828 38.543175,63.566113 39.850819,62.919827
	C41.605072,62.082237 42.768280,61.526215 44.257710,60.948387
	C45.392582,60.281502 46.201229,59.636417 47.239536,58.826653
	C47.694603,58.150688 47.920010,57.639397 48.504517,57.087494
	C50.574978,56.366936 52.286331,55.686985 54.007870,55.357914
	C55.013832,57.806469 56.009613,59.904144 56.841465,62.312057
	C56.454788,65.081215 56.232037,67.540131 56.012283,70.369568
	C57.502941,74.577538 55.256752,75.742722 52.093849,75.894028
	C50.679657,75.961685 49.233063,75.352074 47.590858,75.058426
	C47.380543,75.067039 46.970528,74.971558 46.905430,74.621033
	C45.807255,73.877174 44.774178,73.483849 43.552582,73.091736
	C43.364056,73.092957 42.998043,73.002365 42.981445,72.622803
	C41.898605,71.513847 40.832367,70.784454 39.766129,70.055061
	C39.233513,69.565788 38.700901,69.076515 38.076046,67.997391
	C37.692528,66.370209 37.401257,65.332878 37.109985,64.295547
z"/>
<path fill="#63932A" opacity="1.000000" stroke="none"
	d="
M36.766788,64.275627
	C37.401257,65.332878 37.692528,66.370209 37.980621,67.741440
	C35.101353,67.761429 34.163857,66.658897 36.766788,64.275627
z"/>
<path fill="#63932A" opacity="1.000000" stroke="none"
	d="
M42.981445,72.622803
	C42.203999,72.378304 41.409954,71.754242 40.324394,71.023117
	C40.032879,70.916046 39.870022,70.495018 39.818077,70.275040
	C40.832367,70.784454 41.898605,71.513847 42.981445,72.622803
z"/>
<path fill="#53801E" opacity="1.000000" stroke="none"
	d="
M56.306931,50.036701
	C56.857258,49.847542 57.407585,49.658379 58.102318,49.199821
	C58.981731,48.066139 59.716740,47.201859 60.728230,46.272568
	C61.850407,46.875523 62.758942,48.167942 63.529621,48.090389
	C65.564438,47.885639 67.539474,47.086792 69.765259,46.753418
	C70.241585,47.479542 70.490959,47.976707 70.483032,48.789963
	C69.156166,52.019379 68.086601,54.932701 66.757927,58.092415
	C63.436878,60.970718 60.374939,63.602638 56.844074,66.637627
	C58.537590,67.838707 60.185516,69.007462 61.833443,70.176208
	C61.833443,70.176208 61.900864,70.642487 61.820293,71.120483
	C61.491207,72.066017 61.242695,72.533539 60.656498,72.957565
	C58.882301,71.942383 57.445793,70.970718 56.009281,69.999046
	C56.232037,67.540131 56.454788,65.081215 57.216122,62.253166
	C61.542934,59.716305 60.298748,56.699635 58.652309,54.089622
	C58.348648,53.608242 55.611584,54.661896 53.997684,55.007034
	C52.286331,55.686985 50.574978,56.366936 48.475517,57.062141
	C48.087406,57.077396 48.023407,57.035366 48.178902,56.734051
	C50.991905,54.300724 53.649418,52.168713 56.306931,50.036701
z"/>
<path fill="#42691B" opacity="1.000000" stroke="none"
	d="
M75.827591,80.715485
	C79.976944,84.731308 83.955513,88.469543 87.923141,92.219345
	C88.263779,92.541290 88.531891,92.939949 88.798332,93.260429
	C86.314865,99.202560 82.104408,98.625938 77.250488,96.718216
	C74.261444,95.157387 71.485855,93.374069 68.481384,91.386482
	C68.252495,91.182220 68.068146,91.143814 68.079330,90.781746
	C74.009125,89.258453 75.910812,85.188293 72.645378,80.823105
	C71.904129,79.832207 71.500557,78.588722 70.941551,77.461502
	C72.512337,78.454659 74.083122,79.447807 75.827591,80.715485
z"/>
<path fill="#4B741C" opacity="1.000000" stroke="none"
	d="
M70.796913,77.135681
	C71.500557,78.588722 71.904129,79.832207 72.645378,80.823105
	C75.910812,85.188293 74.009125,89.258453 68.009552,90.718521
	C64.809914,89.077583 61.691223,87.137802 58.261391,85.040703
	C57.950241,84.883385 58.015991,84.396278 58.080711,83.847931
	C59.722263,83.186226 61.299091,83.072876 63.209259,82.935555
	C67.237366,78.895821 63.975040,75.974556 60.994183,73.001068
	C61.242695,72.533539 61.491207,72.066017 61.841850,71.355057
	C62.127197,71.135139 62.310417,71.158653 62.795982,71.582985
	C63.658985,72.347252 64.219643,72.710693 64.780296,73.074142
	C66.737617,74.319389 68.694946,75.564629 70.796913,77.135681
z"/>
<path fill="#54831E" opacity="1.000000" stroke="none"
	d="
M64.764389,72.888725
	C64.219643,72.710693 63.658985,72.347252 63.031406,71.729095
	C63.390095,71.687973 63.815708,71.901550 64.454361,72.227585
	C64.667412,72.340042 64.748482,72.703308 64.764389,72.888725
z"/>
<path fill="#4C731F" opacity="1.000000" stroke="none"
	d="
M70.062874,57.574333
	C69.208153,57.850983 68.477859,57.860966 67.382309,57.858490
	C68.086601,54.932701 69.156166,52.019379 70.591354,49.046158
	C71.094429,50.767750 71.231880,52.549240 71.614288,54.606514
	C71.301933,55.690758 70.744621,56.499214 70.062874,57.574333
z"/>
<path fill="#54831E" opacity="1.000000" stroke="none"
	d="
M60.656498,72.957565
	C63.975040,75.974556 67.237366,78.895821 63.209259,82.935555
	C61.299091,83.072876 59.722263,83.186226 58.094139,83.602539
	C54.680233,81.178886 51.317627,78.452278 47.878098,75.387741
	C49.233063,75.352074 50.679657,75.961685 52.093849,75.894028
	C55.256752,75.742722 57.502941,74.577538 56.012283,70.369568
	C57.445793,70.970718 58.882301,71.942383 60.656498,72.957565
z"/>
<path fill="#57891D" opacity="1.000000" stroke="none"
	d="
M54.007870,55.357918
	C55.611584,54.661896 58.348648,53.608242 58.652309,54.089622
	C60.298748,56.699635 61.542934,59.716305 57.380047,61.942924
	C56.009613,59.904144 55.013832,57.806469 54.007870,55.357918
z"/>
<path fill="#57891D" opacity="1.000000" stroke="none"
	d="
M44.257706,60.948383
	C44.489449,60.108517 45.047417,59.246853 46.060593,58.331280
	C46.743919,58.471455 46.908611,58.709442 47.009876,58.991333
	C46.201229,59.636417 45.392582,60.281502 44.257706,60.948383
z"/>
<path fill="#54831E" opacity="1.000000" stroke="none"
	d="
M46.905430,74.621033
	C46.024719,74.521423 45.078915,74.071289 43.937103,73.355835
	C44.774178,73.483849 45.807255,73.877174 46.905430,74.621033
z"/>
<path fill="#53801E" opacity="1.000000" stroke="none"
	d="
M47.239536,58.826653
	C46.908611,58.709442 46.743919,58.471455 46.328552,58.164589
	C46.141308,58.051804 46.093361,57.605732 46.394287,57.327442
	C47.137943,57.044556 47.580677,57.039959 48.023407,57.035366
	C48.023407,57.035366 48.087406,57.077396 48.116409,57.102753
	C47.920010,57.639397 47.694603,58.150688 47.239536,58.826653
z"/>
</svg>
