<?xml version="1.0" encoding="UTF-8"?>
<!DOCTYPE svg PUBLIC "-//W3C//DTD SVG 1.1//EN" "http://www.w3.org/Graphics/SVG/1.1/DTD/svg11.dtd">
<svg xmlns="http://www.w3.org/2000/svg" version="1.1" width="74px" height="87px" style="shape-rendering:geometricPrecision; text-rendering:geometricPrecision; image-rendering:optimizeQuality; fill-rule:evenodd; clip-rule:evenodd" xmlns:xlink="http://www.w3.org/1999/xlink">
<g><path style="opacity:1" fill="#395e18" d="M 65.5,-0.5 C 66.1667,-0.5 66.8333,-0.5 67.5,-0.5C 69.1468,2.47347 71.1468,5.14014 73.5,7.5C 73.5,8.16667 73.5,8.83333 73.5,9.5C 63.6565,16.2552 53.9898,23.2552 44.5,30.5C 46.2369,27.4788 48.0702,24.4788 50,21.5C 51.9571,22.8539 53.9571,22.5206 56,20.5C 55.5469,18.5458 55.3802,16.7125 55.5,15C 57.9853,13.7773 58.152,12.2773 56,10.5C 52.0546,12.2772 48.2212,14.2772 44.5,16.5C 51.6832,11.073 58.6832,5.40638 65.5,-0.5 Z"/></g>
<g><path style="opacity:1" fill="#4d210b" d="M 5.5,-0.5 C 6.16667,-0.5 6.83333,-0.5 7.5,-0.5C 18.1667,5.5 28.8333,11.5 39.5,17.5C 36.106,20.2205 32.4394,22.5538 28.5,24.5C 22.8562,21.8744 17.1895,19.2078 11.5,16.5C 8.4243,13.4492 4.75763,11.1159 0.5,9.5C 0.166667,9.5 -0.166667,9.5 -0.5,9.5C -0.5,9.16667 -0.5,8.83333 -0.5,8.5C 1.74513,5.68028 3.74513,2.68028 5.5,-0.5 Z"/></g>
<g><path style="opacity:1" fill="#312418" d="M -0.5,9.5 C -0.166667,9.5 0.166667,9.5 0.5,9.5C 0.169238,32.0062 0.502572,54.3396 1.5,76.5C 1.5,77.1667 1.16667,77.5 0.5,77.5C 0.166667,77.5 -0.166667,77.5 -0.5,77.5C -0.5,54.8333 -0.5,32.1667 -0.5,9.5 Z"/></g>
<g><path style="opacity:1" fill="#436d17" d="M 44.5,30.5 C 39.3224,33.9224 34.3224,37.589 29.5,41.5C 30.8773,37.7947 33.544,35.4613 37.5,34.5C 37.7458,31.5299 39.4124,30.1966 42.5,30.5C 42.7564,28.2075 42.4231,26.0408 41.5,24C 43.6145,23.5756 44.4479,22.4089 44,20.5C 39.796,22.1816 35.6293,23.8483 31.5,25.5C 34.8333,22.8333 38.1667,20.1667 41.5,17.5C 42.391,16.8902 43.391,16.5569 44.5,16.5C 48.2212,14.2772 52.0546,12.2772 56,10.5C 58.152,12.2773 57.9853,13.7773 55.5,15C 55.3802,16.7125 55.5469,18.5458 56,20.5C 53.9571,22.5206 51.9571,22.8539 50,21.5C 48.0702,24.4788 46.2369,27.4788 44.5,30.5 Z"/></g>
<g><path style="opacity:1" fill="#53861a" d="M 29.5,41.5 C 28.7109,41.7828 28.0442,42.2828 27.5,43C 30.5707,45.5184 33.5707,48.0184 36.5,50.5C 38.4724,52.4947 40.139,54.828 41.5,57.5C 40.9984,58.7164 40.6651,59.8831 40.5,61C 39.3914,61.6377 38.2247,62.1377 37,62.5C 34.1904,60.1783 31.0237,58.5116 27.5,57.5C 23.1994,55.683 19.1994,53.3497 15.5,50.5C 12.8648,48.1743 10.1982,45.841 7.5,43.5C 9.32627,41.0901 11.6596,39.4234 14.5,38.5C 15.5,37.1667 16.5,35.8333 17.5,34.5C 21.6428,32.5518 25.3095,29.8851 28.5,26.5C 29.609,26.4431 30.609,26.1098 31.5,25.5C 35.6293,23.8483 39.796,22.1816 44,20.5C 44.4479,22.4089 43.6145,23.5756 41.5,24C 42.4231,26.0408 42.7564,28.2075 42.5,30.5C 39.4124,30.1966 37.7458,31.5299 37.5,34.5C 33.544,35.4613 30.8773,37.7947 29.5,41.5 Z"/></g>
<g><path style="opacity:1" fill="#579912" d="M 14.5,38.5 C 16.5952,37.588 18.5952,36.4213 20.5,35C 21.635,34.2506 22.635,34.4173 23.5,35.5C 23.2907,36.086 22.9574,36.586 22.5,37C 23.7107,37.7869 24.7107,38.4536 25.5,39C 25.7709,42.438 25.4375,45.938 24.5,49.5C 18.1797,50.915 13.513,48.5816 10.5,42.5C 12.188,41.4787 13.5213,40.1454 14.5,38.5 Z"/></g>
<g><path style="opacity:1" fill="#1e0a01" d="M 0.5,9.5 C 4.75763,11.1159 8.4243,13.4492 11.5,16.5C 11.5,23.5 11.5,30.5 11.5,37.5C 9.18618,39.4773 6.85285,41.4773 4.5,43.5C 7.0912,45.2812 9.42453,47.2812 11.5,49.5C 11.5,56.1667 11.5,62.8333 11.5,69.5C 11.6309,70.3764 11.2975,71.0431 10.5,71.5C 7.08205,72.6201 4.08205,74.2868 1.5,76.5C 0.502572,54.3396 0.169238,32.0062 0.5,9.5 Z"/></g>
<g><path style="opacity:1" fill="#406c14" d="M 36.5,50.5 C 39.563,52.0252 42.2297,54.0252 44.5,56.5C 48.3068,60.1349 52.3068,63.6349 56.5,67C 55.8333,67.3333 55.1667,67.6667 54.5,68C 58.2527,69.1403 58.9193,70.9736 56.5,73.5C 55.277,74.6139 53.9437,74.7805 52.5,74C 49.319,71.9083 46.319,69.575 43.5,67C 41.9751,65.9914 40.3084,65.4914 38.5,65.5C 37.8333,65.5 37.1667,65.5 36.5,65.5C 33.5,62.8333 30.5,60.1667 27.5,57.5C 31.0237,58.5116 34.1904,60.1783 37,62.5C 38.2247,62.1377 39.3914,61.6377 40.5,61C 40.6651,59.8831 40.9984,58.7164 41.5,57.5C 40.139,54.828 38.4724,52.4947 36.5,50.5 Z"/></g>
<g><path style="opacity:1" fill="#375c17" d="M 44.5,56.5 C 54.3092,62.5742 63.9759,68.9076 73.5,75.5C 73.5,76.1667 73.5,76.8333 73.5,77.5C 71.2651,80.2911 69.2651,83.2911 67.5,86.5C 67.1667,86.5 66.8333,86.5 66.5,86.5C 62.4474,83.1173 58.1141,80.1173 53.5,77.5C 48.6825,73.2597 43.6825,69.2597 38.5,65.5C 40.3084,65.4914 41.9751,65.9914 43.5,67C 46.319,69.575 49.319,71.9083 52.5,74C 53.9437,74.7805 55.277,74.6139 56.5,73.5C 58.9193,70.9736 58.2527,69.1403 54.5,68C 55.1667,67.6667 55.8333,67.3333 56.5,67C 52.3068,63.6349 48.3068,60.1349 44.5,56.5 Z"/></g>
<g><path style="opacity:1" fill="#4e2009" d="M 36.5,65.5 C 37.5274,67.1942 38.8608,68.5275 40.5,69.5C 35.4501,72.6916 30.1168,75.3583 24.5,77.5C 18.5304,79.1513 13.1971,81.818 8.5,85.5C 8.5,85.8333 8.5,86.1667 8.5,86.5C 7.5,86.5 6.5,86.5 5.5,86.5C 3.56755,83.6339 1.90088,80.6339 0.5,77.5C 1.16667,77.5 1.5,77.1667 1.5,76.5C 4.08205,74.2868 7.08205,72.6201 10.5,71.5C 11.2975,71.0431 11.6309,70.3764 11.5,69.5C 17.6387,67.509 23.472,64.8423 29,61.5C 31.4587,62.9784 33.9587,64.3118 36.5,65.5 Z"/></g>
<g><path style="opacity:1" fill="#312418" d="M -0.5,9.5 C -0.166667,9.5 0.166667,9.5 0.5,9.5C 0.169238,32.0062 0.502572,54.3396 1.5,76.5C 1.5,77.1667 1.16667,77.5 0.5,77.5C 0.166667,77.5 -0.166667,77.5 -0.5,77.5C -0.5,54.8333 -0.5,32.1667 -0.5,9.5 Z"/></g>
</svg>
