<svg xmlns="http://www.w3.org/2000/svg" viewBox="0 0 110 132">
  <path fill="#558220" stroke="#558220"
      d="M30.558 26.627 27 31.288v68.037l3.104 4.837c1.708 2.661 3.54 4.838 4.072 4.838 1.27 0
      33.76-16.35 33.783-17 .009-.275-2.434-2.202-5.43-4.282l-5.448-3.781-8.144 4.095c-4.479
      2.252-8.37 3.869-8.646 3.593-.729-.73-.615-14.027.14-16.409.5-1.573-.368-2.85-3.91-5.752l-4.552-3.731
      4.027-2.962 4.028-2.962-.001-8.654c-.002-13.109-.301-12.298 3.894-10.546 1.971.823 5.463
      2.597 7.761 3.944 5.305 3.107 5.147 3.124 10.766-1.166 5.641-4.307
      6.701-3.195-12.636-13.256l-15.691-8.164-3.559 4.66m36.384 15.498c-15.093 11.078-28.471
      20.947-29.728 21.93l-2.285 1.789 3.285 2.409c1.807 1.325 6.436 4.658 10.286 7.406 3.85
      2.748 15.325 10.992 25.5 18.319 10.175 7.327 19.094 13.367 19.82 13.422 1.854.14
      7.898-8.326 6.571-9.206-.576-.382-11.251-7.846-23.722-16.586L53.993 65.715 57.747
      63c2.064-1.494 12.641-9.105 23.503-16.914C92.112 38.276 101 31.658
      101 31.377c0-.428-3.889-6.022-6.003-8.635-.337-.417-12.962 8.305-28.055 19.383m-7.213
      21.967c-.974.567-1.51 1.453-1.191" fill-rule="evenodd"/>
  <path fill="#48220a" stroke="#48220a"
      d="M30.25 27.497 27 31.916V98.527l3.516 5.22 3.515 5.22 15.735-8.136c8.654-4.474 16.073-8.429
      16.488-8.788.796-.687-7.602-7.043-9.305-7.043-.547 0-4.573 1.8-8.949 4-4.376 2.2-8.191 4-8.478 4-.287
      0-.522-4.892-.522-10.871V71.258l-3.493-2.379c-4.31-2.935-4.31-3.029-.007-6.311l3.5-2.67V48.949c0-6.022.337-10.936.75-10.92.413.016
      4.461 1.978 8.997 4.361l8.247 4.331 5.028-3.52
      5.028-3.519-16.123-8.341c-8.868-4.588-16.416-8.323-16.775-8.302-.359.021-2.114 2.028-3.902 4.458" fill-rule="evenodd"/>
</svg>
