<svg xmlns="http://www.w3.org/2000/svg" xmlns:v="https://svgstorm.com"
viewBox = "0 0 110 132"
width="110"
height="132">
<g fill="None" fill-opacity="0.0" stroke="#456D23" stroke-opacity="1.00" stroke-width="0.3"><path d="
M 92.00 24.00
C 92.00 24.00 91.49 23.93 91.00 24.00
C 90.25 24.72 90.27 25.81 89.00 26.00
C 89.00 26.00 88.26 25.75 88.00 26.00
C 87.31 26.67 86.88 27.35 86.00 28.00
C 85.09 28.68 83.95 29.29 83.00 30.00
C 82.49 30.50 81.40 31.53 81.00 32.00
C 81.95 34.30 79.81 33.07 80.00 33.00
C 79.78 33.44 78.39 33.80 78.00 34.00
C 76.19 34.91 75.29 35.48 74.00 37.00
C 75.16 37.07 77.14 36.68 79.00 36.00
C 78.39 39.61 78.60 43.13 80.00 45.00
C 77.99 45.62 73.26 45.17 77.00 48.00
C 73.14 49.83 68.71 52.79 67.00 57.00
C 68.42 56.26 69.77 54.93 71.00 54.00
C 80.05 47.16 93.05 40.47 101.00 32.00
C 101.25 31.73 101.00 31.00 101.00 31.00
C 99.98 29.36 99.10 27.51 98.00 26.00
C 97.00 24.64 95.86 23.75 95.00 22.00
C 95.00 22.00 94.49 21.93 94.00 22.00
C 93.35 22.63 93.22 23.81 92.00 24.00
M 84.00 33.00
C 85.79 34.79 83.23 32.23 84.00 33.00
M 83.00 43.00
C 77.41 41.08 82.84 37.19 83.00 43.00 Z"/>
</g>
<g fill="None" fill-opacity="0.0" stroke="#592907" stroke-opacity="1.00" stroke-width="0.3"><path d="
M 32.00 24.00
C 32.00 24.00 32.15 24.55 32.00 25.00
C 31.49 26.50 30.11 27.18 29.00 28.00
C 29.00 28.00 29.07 28.51 29.00 29.00
C 28.81 30.22 27.63 30.35 27.00 31.00
C 27.00 31.00 27.00 31.50 27.00 32.00
C 30.95 32.20 35.77 36.20 39.00 38.00
C 41.93 39.63 45.23 41.62 48.00 43.00
C 49.49 43.74 51.40 44.20 53.00 45.00
C 54.04 45.52 55.86 46.99 57.00 47.00
C 60.13 44.76 63.38 42.73 66.00 40.00
C 65.65 39.97 65.20 39.31 65.00 39.00
C 64.29 37.92 63.02 36.50 62.00 36.00
C 61.41 35.71 60.44 35.21 60.00 35.00
C 55.77 32.99 51.27 31.21 47.00 29.00
C 46.67 28.83 46.26 28.13 46.00 28.00
C 44.44 27.26 42.58 26.99 41.00 26.00
C 40.68 25.80 40.23 25.29 40.00 25.00
C 39.45 24.63 37.75 24.38 37.00 24.00
C 36.56 23.78 35.48 23.07 35.00 23.00
C 34.28 22.90 32.40 23.28 32.00 24.00 Z"/>
</g>
<g fill="None" fill-opacity="0.0" stroke="#2B160A" stroke-opacity="1.00" stroke-width="0.3"><path d="
M 27.00 37.00
C 27.00 47.67 27.00 58.33 27.00 69.00
C 27.00 72.67 27.00 76.33 27.00 80.00
C 27.00 86.00 27.00 92.00 27.00 98.00
C 27.00 98.50 26.91 99.52 27.00 100.00
C 27.34 100.23 28.00 100.00 28.00 100.00
C 30.35 96.40 35.29 94.88 39.00 93.00
C 40.71 89.26 39.87 76.10 39.00 72.00
C 38.49 71.75 38.34 70.31 38.00 70.00
C 35.57 69.04 33.30 67.42 32.00 65.00
C 34.89 64.11 36.86 61.76 39.00 60.00
C 39.97 57.25 39.08 51.92 39.00 49.00 C 38.92 46.08 40.18 40.60 39.00 38.00
C 35.77 36.20 30.95 32.20 27.00 32.00
C 27.00 33.67 27.00 35.33 27.00 37.00 Z"/>
</g>
<g fill="None" fill-opacity="0.0" stroke="#4D7E1C" stroke-opacity="1.00" stroke-width="0.3"><path d="
M 80.00 33.00
C 79.81 33.07 81.95 34.30 81.00 32.00
C 81.00 32.00 80.49 31.93 80.00 32.00
C 80.00 32.00 80.20 32.60 80.00 33.00 Z"/>
</g>
<g fill="None" fill-opacity="0.0" stroke="#4D7E1C" stroke-opacity="1.00" stroke-width="0.3"><path d="
M 84.00 33.00
C 83.23 32.23 85.79 34.79 84.00 33.00 Z"/>
</g>
<g fill="None" fill-opacity="0.0" stroke="#4D7E1C" stroke-opacity="1.00" stroke-width="0.3"><path d="
M 74.00 37.00
C 73.78 37.26 73.14 37.65 73.00 38.00
C 71.96 40.57 71.49 39.73 70.00 40.00
C 69.96 40.03 68.04 41.01 68.00 41.00
C 67.74 41.24 67.22 42.10 67.00 42.00
C 66.58 41.82 65.33 42.79 65.00 43.00
C 64.20 43.68 63.96 44.40 63.00 45.00
C 62.40 45.37 61.63 45.60 61.00 46.00
C 60.26 46.63 59.83 47.40 59.00 48.00
C 57.76 48.89 56.15 49.31 55.00 50.00
C 54.35 50.52 53.69 51.45 53.00 52.00
C 50.89 54.22 46.08 56.73 44.08 59.08 C 42.08 61.44 35.92 62.42 35.00 65.00
C 35.53 65.41 35.61 66.57 36.00 67.00
C 38.43 69.07 41.51 71.13 44.00 73.00
C 51.43 78.58 59.32 83.74 67.00 89.00
C 67.56 89.25 67.92 88.21 69.00 90.00
C 69.14 90.35 69.69 90.80 70.00 91.00
C 71.54 89.23 70.25 89.51 72.00 92.00
C 72.73 92.62 73.18 93.40 74.00 94.00
C 77.25 94.91 80.43 91.32 84.00 93.00
C 81.59 90.33 77.62 88.18 74.00 90.00
C 75.17 84.98 75.83 88.08 80.00 87.00
C 77.30 83.87 73.61 81.52 71.00 78.00
C 70.80 77.68 70.31 77.20 70.00 77.00
C 68.75 76.90 69.48 77.51 68.00 76.00
C 66.36 74.48 54.98 67.50 55.00 66.00
C 54.45 65.45 56.89 64.10 57.00 64.00
C 58.99 61.69 61.82 60.06 64.00 58.00
C 65.04 57.02 64.74 55.71 66.00 57.00
C 66.48 56.91 67.00 57.00 67.00 57.00
C 68.71 52.79 73.14 49.83 77.00 48.00
C 73.26 45.17 77.99 45.62 80.00 45.00
C 78.60 43.13 78.39 39.61 79.00 36.00
C 77.14 36.68 75.16 37.07 74.00 37.00
M 76.00 43.00
C 76.61 43.61 74.34 41.34 76.00 43.00 Z"/>
</g>
<g fill="None" fill-opacity="0.0" stroke="#456D23" stroke-opacity="1.00" stroke-width="0.3"><path d="
M 70.00 40.00
C 71.49 39.73 71.96 40.57 73.00 38.00
C 73.00 38.00 72.49 37.93 72.00 38.00
C 71.91 38.09 70.56 40.56 70.00 40.00 Z"/>
</g>
<g fill="None" fill-opacity="0.0" stroke="#2B160A" stroke-opacity="1.00" stroke-width="0.3"><path d="
M 66.00 40.00
C 66.00 40.00 66.61 40.21 67.00 40.00
C 67.84 39.22 64.75 38.86 65.00 39.00
C 65.20 39.31 65.65 39.97 66.00 40.00 Z"/>
</g>
<g fill="None" fill-opacity="0.0" stroke="#4D7E1C" stroke-opacity="1.00" stroke-width="0.3"><path d="
M 83.00 43.00
C 82.84 37.19 77.41 41.08 83.00 43.00 Z"/>
</g>
<g fill="None" fill-opacity="0.0" stroke="#456D23" stroke-opacity="1.00" stroke-width="0.3"><path d="
M 76.00 43.00
C 74.34 41.34 76.61 43.61 76.00 43.00 Z"/>
</g>
<g fill="None" fill-opacity="0.0" stroke="#456D23" stroke-opacity="1.00" stroke-width="0.3"><path d="
M 64.00 58.00
C 64.22 57.82 65.68 57.06 66.00 57.00
C 64.74 55.71 65.04 57.02 64.00 58.00 Z"/>
</g>
<g fill="None" fill-opacity="0.0" stroke="#456D23" stroke-opacity="1.00" stroke-width="0.3"><path d="
M 70.00 77.00
C 69.41 76.63 68.55 76.51 68.00 76.00
C 69.48 77.51 68.75 76.90 70.00 77.00 Z"/>
</g>
<g fill="None" fill-opacity="0.0" stroke="#456D23" stroke-opacity="1.00" stroke-width="0.3"><path d="
M 74.00 94.00
C 76.76 96.02 80.94 99.62 83.92 101.08 C 86.90 102.54 90.74 108.06 94.00 108.00
C 94.14 108.00 95.95 107.06 96.00 107.00
C 97.10 103.69 100.38 101.42 101.00 98.00
C 90.44 92.60 81.14 84.44 71.00 78.00
C 73.61 81.52 77.30 83.87 80.00 87.00
C 75.83 88.08 75.17 84.98 74.00 90.00
C 77.62 88.18 81.59 90.33 84.00 93.00
C 80.43 91.32 77.25 94.91 74.00 94.00 Z"/>
</g>
<g fill="None" fill-opacity="0.0" stroke="#592907" stroke-opacity="1.00" stroke-width="0.3"><path d="
M 52.00 87.00
C 50.42 87.75 48.65 88.17 47.00 89.00
C 46.60 89.20 46.00 89.00 46.00 89.00
C 45.74 89.12 45.32 89.80 45.00 90.00
C 43.26 91.08 41.07 91.96 39.00 93.00
C 35.29 94.88 30.35 96.40 28.00 100.00
C 28.47 100.23 28.76 101.62 29.00 102.00
C 29.77 103.24 30.33 104.89 31.00 106.00
C 31.22 106.28 32.78 107.84 33.00 108.00
C 34.79 108.94 35.59 108.10 38.00 108.00
C 47.69 104.33 56.43 95.41 67.00 93.00
C 67.53 91.72 66.03 91.14 66.00 90.00
C 65.39 89.63 64.64 89.40 64.00 89.00
C 62.99 88.37 62.74 87.71 62.00 87.00
C 62.00 87.00 61.49 87.07 61.00 87.00
C 59.75 86.81 59.70 85.53 59.00 85.00
C 58.12 84.49 56.76 84.42 56.00 84.00
C 55.79 84.03 52.76 86.64 52.00 87.00 Z"/>
</g>
<g fill="None" fill-opacity="0.0" stroke="#456D23" stroke-opacity="1.00" stroke-width="0.3"><path d="
M 67.00 89.00
C 67.34 89.23 68.82 89.55 69.00 90.00
C 67.92 88.21 67.56 89.25 67.00 89.00 Z"/>
</g>
<g fill="None" fill-opacity="0.0" stroke="#456D23" stroke-opacity="1.00" stroke-width="0.3"><path d="
M 70.00 91.00
C 70.60 91.38 71.42 91.51 72.00 92.00
C 70.25 89.51 71.54 89.23 70.00 91.00 Z"/>
</g>
<g fill="#456D23" fill-opacity="1.00" stroke="None">
<path d="
M 92.00 24.00
C 92.00 24.00 91.49 23.93 91.00 24.00
C 90.25 24.72 90.27 25.81 89.00 26.00
C 89.00 26.00 88.26 25.75 88.00 26.00
C 87.31 26.67 86.88 27.35 86.00 28.00
C 85.09 28.68 83.95 29.29 83.00 30.00
C 82.49 30.50 81.40 31.53 81.00 32.00
C 81.95 34.30 79.81 33.07 80.00 33.00
C 79.78 33.44 78.39 33.80 78.00 34.00
C 76.19 34.91 75.29 35.48 74.00 37.00
C 75.16 37.07 77.14 36.68 79.00 36.00
C 78.39 39.61 78.60 43.13 80.00 45.00
C 77.99 45.62 73.26 45.17 77.00 48.00
C 73.14 49.83 68.71 52.79 67.00 57.00
C 68.42 56.26 69.77 54.93 71.00 54.00
C 80.05 47.16 93.05 40.47 101.00 32.00
C 101.25 31.73 101.00 31.00 101.00 31.00
C 99.98 29.36 99.10 27.51 98.00 26.00
C 97.00 24.64 95.86 23.75 95.00 22.00
C 95.00 22.00 94.49 21.93 94.00 22.00
C 93.35 22.63 93.22 23.81 92.00 24.00
M 84.00 33.00
C 85.79 34.79 83.23 32.23 84.00 33.00
M 83.00 43.00
C 77.41 41.08 82.84 37.19 83.00 43.00 Z"/>
</g>
<g fill="#592907" fill-opacity="1.00" stroke="None">
<path d="
M 32.00 24.00
C 32.00 24.00 32.15 24.55 32.00 25.00
C 31.49 26.50 30.11 27.18 29.00 28.00
C 29.00 28.00 29.07 28.51 29.00 29.00
C 28.81 30.22 27.63 30.35 27.00 31.00
C 27.00 31.00 27.00 31.50 27.00 32.00
C 30.95 32.20 35.77 36.20 39.00 38.00
C 41.93 39.63 45.23 41.62 48.00 43.00
C 49.49 43.74 51.40 44.20 53.00 45.00
C 54.04 45.52 55.86 46.99 57.00 47.00
C 60.13 44.76 63.38 42.73 66.00 40.00
C 65.65 39.97 65.20 39.31 65.00 39.00
C 64.29 37.92 63.02 36.50 62.00 36.00
C 61.41 35.71 60.44 35.21 60.00 35.00
C 55.77 32.99 51.27 31.21 47.00 29.00
C 46.67 28.83 46.26 28.13 46.00 28.00
C 44.44 27.26 42.58 26.99 41.00 26.00
C 40.68 25.80 40.23 25.29 40.00 25.00
C 39.45 24.63 37.75 24.38 37.00 24.00
C 36.56 23.78 35.48 23.07 35.00 23.00
C 34.28 22.90 32.40 23.28 32.00 24.00 Z"/>
</g>
<g fill="#2B160A" fill-opacity="1.00" stroke="None">
<path d="
M 27.00 37.00
C 27.00 47.67 27.00 58.33 27.00 69.00
C 27.00 72.67 27.00 76.33 27.00 80.00
C 27.00 86.00 27.00 92.00 27.00 98.00
C 27.00 98.50 26.91 99.52 27.00 100.00
C 27.34 100.23 28.00 100.00 28.00 100.00
C 30.35 96.40 35.29 94.88 39.00 93.00
C 40.71 89.26 39.87 76.10 39.00 72.00
C 38.49 71.75 38.34 70.31 38.00 70.00
C 35.57 69.04 33.30 67.42 32.00 65.00
C 34.89 64.11 36.86 61.76 39.00 60.00
C 39.97 57.25 39.08 51.92 39.00 49.00 C 38.92 46.08 40.18 40.60 39.00 38.00
C 35.77 36.20 30.95 32.20 27.00 32.00
C 27.00 33.67 27.00 35.33 27.00 37.00 Z"/>
</g>
<g fill="#4D7E1C" fill-opacity="1.00" stroke="None">
<path d="
M 80.00 33.00
C 79.81 33.07 81.95 34.30 81.00 32.00
C 81.00 32.00 80.49 31.93 80.00 32.00
C 80.00 32.00 80.20 32.60 80.00 33.00 Z"/>
</g>
<g fill="#4D7E1C" fill-opacity="1.00" stroke="None">
<path d="
M 84.00 33.00
C 83.23 32.23 85.79 34.79 84.00 33.00 Z"/>
</g>
<g fill="#4D7E1C" fill-opacity="1.00" stroke="None">
<path d="
M 74.00 37.00
C 73.78 37.26 73.14 37.65 73.00 38.00
C 71.96 40.57 71.49 39.73 70.00 40.00
C 69.96 40.03 68.04 41.01 68.00 41.00
C 67.74 41.24 67.22 42.10 67.00 42.00
C 66.58 41.82 65.33 42.79 65.00 43.00
C 64.20 43.68 63.96 44.40 63.00 45.00
C 62.40 45.37 61.63 45.60 61.00 46.00
C 60.26 46.63 59.83 47.40 59.00 48.00
C 57.76 48.89 56.15 49.31 55.00 50.00
C 54.35 50.52 53.69 51.45 53.00 52.00
C 50.89 54.22 46.08 56.73 44.08 59.08 C 42.08 61.44 35.92 62.42 35.00 65.00
C 35.53 65.41 35.61 66.57 36.00 67.00
C 38.43 69.07 41.51 71.13 44.00 73.00
C 51.43 78.58 59.32 83.74 67.00 89.00
C 67.56 89.25 67.92 88.21 69.00 90.00
C 69.14 90.35 69.69 90.80 70.00 91.00
C 71.54 89.23 70.25 89.51 72.00 92.00
C 72.73 92.62 73.18 93.40 74.00 94.00
C 77.25 94.91 80.43 91.32 84.00 93.00
C 81.59 90.33 77.62 88.18 74.00 90.00
C 75.17 84.98 75.83 88.08 80.00 87.00
C 77.30 83.87 73.61 81.52 71.00 78.00
C 70.80 77.68 70.31 77.20 70.00 77.00
C 68.75 76.90 69.48 77.51 68.00 76.00
C 66.36 74.48 54.98 67.50 55.00 66.00
C 54.45 65.45 56.89 64.10 57.00 64.00
C 58.99 61.69 61.82 60.06 64.00 58.00
C 65.04 57.02 64.74 55.71 66.00 57.00
C 66.48 56.91 67.00 57.00 67.00 57.00
C 68.71 52.79 73.14 49.83 77.00 48.00
C 73.26 45.17 77.99 45.62 80.00 45.00
C 78.60 43.13 78.39 39.61 79.00 36.00
C 77.14 36.68 75.16 37.07 74.00 37.00
M 76.00 43.00
C 76.61 43.61 74.34 41.34 76.00 43.00 Z"/>
</g>
<g fill="#456D23" fill-opacity="1.00" stroke="None">
<path d="
M 70.00 40.00
C 71.49 39.73 71.96 40.57 73.00 38.00
C 73.00 38.00 72.49 37.93 72.00 38.00
C 71.91 38.09 70.56 40.56 70.00 40.00 Z"/>
</g>
<g fill="#2B160A" fill-opacity="1.00" stroke="None">
<path d="
M 66.00 40.00
C 66.00 40.00 66.61 40.21 67.00 40.00
C 67.84 39.22 64.75 38.86 65.00 39.00
C 65.20 39.31 65.65 39.97 66.00 40.00 Z"/>
</g>
<g fill="#4D7E1C" fill-opacity="1.00" stroke="None">
<path d="
M 83.00 43.00
C 82.84 37.19 77.41 41.08 83.00 43.00 Z"/>
</g>
<g fill="#456D23" fill-opacity="1.00" stroke="None">
<path d="
M 76.00 43.00
C 74.34 41.34 76.61 43.61 76.00 43.00 Z"/>
</g>
<g fill="#456D23" fill-opacity="1.00" stroke="None">
<path d="
M 64.00 58.00
C 64.22 57.82 65.68 57.06 66.00 57.00
C 64.74 55.71 65.04 57.02 64.00 58.00 Z"/>
</g>
<g fill="#456D23" fill-opacity="1.00" stroke="None">
<path d="
M 70.00 77.00
C 69.41 76.63 68.55 76.51 68.00 76.00
C 69.48 77.51 68.75 76.90 70.00 77.00 Z"/>
</g>
<g fill="#456D23" fill-opacity="1.00" stroke="None">
<path d="
M 74.00 94.00
C 76.76 96.02 80.94 99.62 83.92 101.08 C 86.90 102.54 90.74 108.06 94.00 108.00
C 94.14 108.00 95.95 107.06 96.00 107.00
C 97.10 103.69 100.38 101.42 101.00 98.00
C 90.44 92.60 81.14 84.44 71.00 78.00
C 73.61 81.52 77.30 83.87 80.00 87.00
C 75.83 88.08 75.17 84.98 74.00 90.00
C 77.62 88.18 81.59 90.33 84.00 93.00
C 80.43 91.32 77.25 94.91 74.00 94.00 Z"/>
</g>
<g fill="#592907" fill-opacity="1.00" stroke="None">
<path d="
M 52.00 87.00
C 50.42 87.75 48.65 88.17 47.00 89.00
C 46.60 89.20 46.00 89.00 46.00 89.00
C 45.74 89.12 45.32 89.80 45.00 90.00
C 43.26 91.08 41.07 91.96 39.00 93.00
C 35.29 94.88 30.35 96.40 28.00 100.00
C 28.47 100.23 28.76 101.62 29.00 102.00
C 29.77 103.24 30.33 104.89 31.00 106.00
C 31.22 106.28 32.78 107.84 33.00 108.00
C 34.79 108.94 35.59 108.10 38.00 108.00
C 47.69 104.33 56.43 95.41 67.00 93.00
C 67.53 91.72 66.03 91.14 66.00 90.00
C 65.39 89.63 64.64 89.40 64.00 89.00
C 62.99 88.37 62.74 87.71 62.00 87.00
C 62.00 87.00 61.49 87.07 61.00 87.00
C 59.75 86.81 59.70 85.53 59.00 85.00
C 58.12 84.49 56.76 84.42 56.00 84.00
C 55.79 84.03 52.76 86.64 52.00 87.00 Z"/>
</g>
<g fill="#456D23" fill-opacity="1.00" stroke="None">
<path d="
M 67.00 89.00
C 67.34 89.23 68.82 89.55 69.00 90.00
C 67.92 88.21 67.56 89.25 67.00 89.00 Z"/>
</g>
<g fill="#456D23" fill-opacity="1.00" stroke="None">
<path d="
M 70.00 91.00
C 70.60 91.38 71.42 91.51 72.00 92.00
C 70.25 89.51 71.54 89.23 70.00 91.00 Z"/>
</g>
</svg>
